<svg xmlns="http://www.w3.org/2000/svg" width="18" height="18" fill="none"><g fill="#e3e3e3" clip-path="url(#a)"><path d="m8.662 4.85 1.487-1.49 1.486 1.49-1.487 1.49zM6.088 7.37l1.487-1.49 1.486 1.49-1.487 1.49zM7.958 10.084l4.908-4.92 1.386 1.39-4.908 4.92zM.41 15l2.416-5.04 2.825 5.76H.41z"/><path d="m.41 15 2.416-5.04 2.825 5.76H.41zm.13.383h4.57l-2.284-4.658z"/><path d="M14.984 17.663V18H3.058v-.337zm2.68-2.686V3.023c0-1.483-1.2-2.685-2.68-2.685H3.058a2.683 2.683 0 0 0-2.68 2.685v11.954c0 1.483 1.2 2.686 2.68 2.686V18a3.02 3.02 0 0 1-3.016-3.023V3.023A3.02 3.02 0 0 1 3.058 0h11.946A3.02 3.02 0 0 1 18 3.023v11.974A3.02 3.02 0 0 1 14.984 18v-.337c1.48 0 2.68-1.203 2.68-2.686"/><path d="M14.984 17.03V18H3.058v-.97zm2.048-2.053V3.023A2.05 2.05 0 0 0 14.984.97H3.058A2.05 2.05 0 0 0 1.01 3.023v11.954a2.05 2.05 0 0 0 2.048 2.053V18a3.02 3.02 0 0 1-3.016-3.023V3.023A3.02 3.02 0 0 1 3.058 0h11.946A3.02 3.02 0 0 1 18 3.023v11.974A3.02 3.02 0 0 1 14.984 18v-.97a2.05 2.05 0 0 0 2.048-2.053"/><path d="M14.984 17.423V18H3.058v-.577zm2.441-2.446V3.023A2.444 2.444 0 0 0 14.984.577H3.058a2.444 2.444 0 0 0-2.44 2.446v11.954a2.444 2.444 0 0 0 2.44 2.446V18a3.02 3.02 0 0 1-3.016-3.023V3.023A3.02 3.02 0 0 1 3.058 0h11.946A3.02 3.02 0 0 1 18 3.023v11.974A3.02 3.02 0 0 1 14.984 18v-.577a2.444 2.444 0 0 0 2.441-2.446"/><path d="M17.27 15.413v.393H.773v-.393zM10.461 13.905l6.126-6.164-6.178-6.168-6.126 6.164zm7.315-6.525a.507.507 0 0 1 .002.716l-6.957 7.001-.01.01a.504.504 0 0 1-.705-.008L3.094 8.097a.507.507 0 0 1-.01-.706l.008-.01 6.957-7a.504.504 0 0 1 .715-.002z"/></g><defs><clipPath id="a"><path fill="#fff" d="M0 0h18v18H0z"/></clipPath></defs></svg>